<svg width="129" height="36" viewBox="0 0 129 36" fill="none" xmlns="http://www.w3.org/2000/svg">
<path d="M52.208 21.016C52.208 22.312 51.752 23.344 50.84 24.112C49.944 24.864 48.536 25.24 46.616 25.24C45.688 25.24 44.872 25.184 44.168 25.072C43.48 24.96 42.784 24.76 42.08 24.472V21.208C42.848 21.56 43.648 21.832 44.48 22.024C45.312 22.2 46.016 22.288 46.592 22.288C47.2 22.288 47.64 22.208 47.912 22.048C48.184 21.888 48.32 21.664 48.32 21.376C48.32 21.168 48.248 20.984 48.104 20.824C47.976 20.664 47.704 20.488 47.288 20.296C46.888 20.088 46.288 19.816 45.488 19.48C44.704 19.144 44.056 18.8 43.544 18.448C43.048 18.096 42.672 17.68 42.416 17.2C42.176 16.704 42.056 16.088 42.056 15.352C42.056 14.104 42.536 13.168 43.496 12.544C44.472 11.904 45.76 11.584 47.36 11.584C48.208 11.584 49.008 11.672 49.76 11.848C50.512 12.024 51.288 12.296 52.088 12.664L50.936 15.4C50.28 15.112 49.64 14.88 49.016 14.704C48.408 14.528 47.856 14.44 47.36 14.44C46.432 14.44 45.968 14.68 45.968 15.16C45.968 15.336 46.032 15.504 46.16 15.664C46.304 15.808 46.568 15.968 46.952 16.144C47.352 16.32 47.928 16.568 48.68 16.888C49.432 17.192 50.072 17.52 50.6 17.872C51.128 18.208 51.528 18.624 51.8 19.12C52.072 19.616 52.208 20.248 52.208 21.016ZM56.9326 6.592C57.5086 6.592 58.0126 6.72 58.4446 6.976C58.8766 7.232 59.0926 7.728 59.0926 8.464C59.0926 9.184 58.8766 9.68 58.4446 9.952C58.0126 10.208 57.5086 10.336 56.9326 10.336C56.3246 10.336 55.8046 10.208 55.3726 9.952C54.9566 9.68 54.7486 9.184 54.7486 8.464C54.7486 7.728 54.9566 7.232 55.3726 6.976C55.8046 6.72 56.3246 6.592 56.9326 6.592ZM58.9246 11.824V25H54.8926V11.824H58.9246ZM70.2635 11.584C71.6555 11.584 72.7755 11.968 73.6235 12.736C74.4875 13.488 74.9195 14.712 74.9195 16.408V25H70.8875V17.536C70.8875 16.624 70.7355 15.936 70.4315 15.472C70.1275 15.008 69.6475 14.776 68.9915 14.776C68.0155 14.776 67.3515 15.144 66.9995 15.88C66.6475 16.6 66.4715 17.64 66.4715 19V25H62.4155V11.824H65.4875L66.0395 13.528H66.2315C66.6475 12.888 67.2075 12.408 67.9115 12.088C68.6155 11.752 69.3995 11.584 70.2635 11.584ZM83.9936 25.24C82.0096 25.24 80.4576 24.704 79.3376 23.632C78.2176 22.544 77.6576 20.824 77.6576 18.472C77.6576 16.872 77.9376 15.568 78.4976 14.56C79.0736 13.536 79.8656 12.784 80.8736 12.304C81.8816 11.824 83.0336 11.584 84.3296 11.584C85.1936 11.584 85.9696 11.672 86.6576 11.848C87.3616 12.024 87.9856 12.248 88.5296 12.52L87.3536 15.568C86.7936 15.328 86.2736 15.144 85.7936 15.016C85.3136 14.872 84.8256 14.8 84.3296 14.8C83.5136 14.8 82.8816 15.104 82.4336 15.712C81.9856 16.32 81.7616 17.232 81.7616 18.448C81.7616 19.68 81.9936 20.584 82.4576 21.16C82.9216 21.72 83.5536 22 84.3536 22C85.0576 22 85.7136 21.904 86.3216 21.712C86.9456 21.504 87.5376 21.216 88.0976 20.848V24.16C87.5536 24.512 86.9616 24.784 86.3216 24.976C85.6816 25.152 84.9056 25.24 83.9936 25.24ZM96.6504 11.584C98.5064 11.584 99.9784 12.096 101.066 13.12C102.154 14.128 102.698 15.616 102.698 17.584V19.456H94.3704C94.4024 20.32 94.6824 21.008 95.2104 21.52C95.7384 22.032 96.4904 22.288 97.4664 22.288C98.2984 22.288 99.0584 22.208 99.7464 22.048C100.45 21.888 101.17 21.632 101.906 21.28V24.28C101.25 24.616 100.554 24.856 99.8184 25C99.0984 25.16 98.2024 25.24 97.1304 25.24C95.8024 25.24 94.6184 25 93.5784 24.52C92.5544 24.04 91.7464 23.304 91.1544 22.312C90.5784 21.304 90.2904 20.032 90.2904 18.496C90.2904 16.944 90.5544 15.656 91.0824 14.632C91.6104 13.608 92.3464 12.848 93.2904 12.352C94.2504 11.84 95.3704 11.584 96.6504 11.584ZM96.7224 14.392C96.0984 14.392 95.5784 14.592 95.1624 14.992C94.7624 15.376 94.5224 15.992 94.4424 16.84H98.9784C98.9624 16.152 98.7704 15.576 98.4024 15.112C98.0344 14.632 97.4744 14.392 96.7224 14.392ZM113.079 11.584C113.287 11.584 113.519 11.6 113.775 11.632C114.031 11.648 114.231 11.672 114.375 11.704L114.039 15.496C113.895 15.464 113.711 15.44 113.487 15.424C113.263 15.392 113.015 15.376 112.743 15.376C112.231 15.376 111.719 15.456 111.207 15.616C110.711 15.776 110.295 16.08 109.959 16.528C109.639 16.96 109.479 17.584 109.479 18.4V25H105.423V11.824H108.471L109.095 13.984H109.263C109.647 13.328 110.175 12.768 110.847 12.304C111.519 11.824 112.263 11.584 113.079 11.584ZM121.705 11.584C123.561 11.584 125.033 12.096 126.121 13.12C127.209 14.128 127.753 15.616 127.753 17.584V19.456H119.425C119.457 20.32 119.737 21.008 120.265 21.52C120.793 22.032 121.545 22.288 122.521 22.288C123.353 22.288 124.113 22.208 124.801 22.048C125.505 21.888 126.225 21.632 126.961 21.28V24.28C126.305 24.616 125.609 24.856 124.873 25C124.153 25.16 123.257 25.24 122.185 25.24C120.857 25.24 119.673 25 118.633 24.52C117.609 24.04 116.801 23.304 116.209 22.312C115.633 21.304 115.345 20.032 115.345 18.496C115.345 16.944 115.609 15.656 116.137 14.632C116.665 13.608 117.401 12.848 118.345 12.352C119.305 11.84 120.425 11.584 121.705 11.584ZM121.777 14.392C121.153 14.392 120.633 14.592 120.217 14.992C119.817 15.376 119.577 15.992 119.497 16.84H124.033C124.017 16.152 123.825 15.576 123.457 15.112C123.089 14.632 122.529 14.392 121.777 14.392Z" fill="white"/>
<path fill-rule="evenodd" clip-rule="evenodd" d="M25.4695 21.713L9.02568 12.1402V3.74106L5.48111 5.79498V14.1941L21.9615 23.7303V32.1294L25.4695 30.1121V21.713Z" fill="#3855E2"/>
<path d="M23.0577 5.64829L24.3732 6.41853V11.1499L23.0577 10.3797V5.64829ZM21.9615 3.74106V11.0032L25.4695 13.0571V5.79498L21.9615 3.74106Z" fill="#3855E2"/>
<path d="M6.57736 24.7572L7.89287 25.5275V30.2588L6.57736 29.4886V24.7572ZM5.48111 22.85V30.1121L8.98912 32.1661V24.8673L5.48111 22.85Z" fill="#3855E2"/>
<path d="M28.5393 8.83929L29.8548 9.60953V14.3409L28.5393 13.5707V8.83929ZM27.4431 6.93204V14.1942L30.9511 16.2481V8.98598L27.4431 6.93204Z" fill="#3855E2"/>
<path fill-rule="evenodd" clip-rule="evenodd" d="M16.4805 4.65803L15.4939 4.07119L14.5072 4.65803V8.98597L30.9876 18.5221V26.9212L27.443 28.9752V20.576L10.9992 11.0032V2.6041L15.4939 0L19.9885 2.6041V9.86623L16.4805 7.84895V4.65803Z" fill="#3855E2"/>
<path fill-rule="evenodd" clip-rule="evenodd" d="M16.4804 31.2492L15.4937 31.7993L14.5071 31.2492V28.0582L10.9991 26.041V33.3031L15.4937 35.9072L19.9884 33.3031V24.8673L3.50802 15.3312V6.93204L0 8.98598V17.3851L16.4804 26.9213V31.2492Z" fill="#3855E2"/>
<path d="M1.09625 21.5663L2.41176 22.3365V27.0679L1.09625 26.2977V21.5663ZM0 19.6591V26.9212L3.50802 28.9751V21.713L0 19.6591Z" fill="#3855E2"/>
</svg>
